# xmcd
#
# Track frame offsets:
#	150
#	11763
#	27543
#	43831
#	58804
#	75025
#	93123
#	108603
#	122709
#	136717
#
# Disc length: 2025 seconds
#
# Revision: 1
# Processed by: cddbd v1.5.2PL0 Copyright (c) Steve Scherf et al.
# Submitted via: audiograbber 1.83.01
#
DISCID=7907e70a
DTITLE=Wade Hayes - When the wrong one loves you right
DYEAR=1997
DGENRE=Country
TTITLE0=When the wrong one loves you right
TTITLE1=How do you sleep at night
TTITLE2=The day that she left Tulsa (in a Chevy)
TTITLE3=Are we having fun yet
TTITLE4=This is my heart talking now
TTITLE5=One more night with you
TTITLE6=Summer was a bummer
TTITLE7=Tore up from the floor up
TTITLE8=If I wanted to forget
TTITLE9=Mine to lose
EXTD=
EXTT0=
EXTT1=
EXTT2=
EXTT3=
EXTT4=
EXTT5=
EXTT6=
EXTT7=
EXTT8=
EXTT9=
PLAYORDER=
